<svg width="636" height="156" viewBox="0 0 636 156" fill="none" xmlns="http://www.w3.org/2000/svg">
    <path d="M57.7709 0.896912H0.25531V155.137H35.4512V108.424H57.7709C90.3913 108.424 112.497 85.7295 112.497 54.6609C112.497 23.5922 90.3913 0.896912 57.7709 0.896912ZM53.6935 75.3726H35.4512V33.9484H53.6935C68.5012 33.9484 76.4417 42.1009 76.4417 54.6609C76.4417 67.22 68.5012 75.3726 53.6935 75.3726Z" fill="#D22730"/>
    <path d="M147.422 155.137H182.619V0.896912H147.422V155.137Z" fill="#D22730"/>
    <path d="M260.814 122.747L324.768 27.9991V0.896912H221.325V33.2873H280.988L217.034 128.035V155.137H328.416V122.747H260.814Z" fill="#D22730"/>
    <path d="M396.454 122.747L460.409 27.9991V0.896912H356.966V33.2873H416.628L352.674 128.035V155.137H464.056V122.747H396.454Z" fill="#D22730"/>
    <path d="M597.337 155.137H635.326L576.737 0.896912H541.75L483.378 155.137H520.716L531.233 127.374H586.82L597.337 155.137ZM559.14 47.1693L576.737 96.0854H541.325L559.14 47.1693Z" fill="#D22730"/>
</svg>
